<svg width="261" height="67" viewBox="0 0 261 67" fill="none" xmlns="http://www.w3.org/2000/svg">
<path d="M56.858 12.3076H33.7C30.3442 12.3076 27.5962 9.53898 27.5962 6.15794C27.5962 2.7769 30.3442 0.00830078 33.7 0.00830078H56.858C60.2139 0.00830078 62.9619 2.7769 62.9619 6.15794C62.9702 9.53898 60.2222 12.3076 56.858 12.3076Z" fill="#8B8D90"/>
<path d="M40.387 29.1709H6.10385C2.74798 29.1709 0 26.4023 0 23.0129C0 19.6319 2.74798 16.8633 6.10385 16.8633H40.387C43.7429 16.8633 46.4909 19.6319 46.4909 23.0129C46.4909 26.4023 43.7429 29.1709 40.387 29.1709Z" fill="#0F75A9"/>
<path d="M89.2678 29.1709H54.993C51.6371 29.1709 48.8892 26.4023 48.8892 23.0212C48.8892 19.6402 51.6371 16.8716 54.993 16.8716H89.2678C92.6237 16.8716 95.3717 19.6402 95.3717 23.0212C95.38 26.4023 92.632 29.1709 89.2678 29.1709Z" fill="#D14C1D"/>
<path d="M72.1302 12.2993C75.5013 12.2993 78.2341 9.54599 78.2341 6.14964C78.2341 2.75329 75.5013 0 72.1302 0C68.7592 0 66.0264 2.75329 66.0264 6.14964C66.0264 9.54599 68.7592 12.2993 72.1302 12.2993Z" fill="#D14C1D"/>
<path d="M13.2904 46.0341C16.6614 46.0341 19.3942 43.2809 19.3942 39.8845C19.3942 36.4882 16.6614 33.7349 13.2904 33.7349C9.91931 33.7349 7.18652 36.4882 7.18652 39.8845C7.18652 43.2809 9.91931 46.0341 13.2904 46.0341Z" fill="#578BA7"/>
<path d="M27.9046 46.0341C31.2757 46.0341 34.0085 43.2809 34.0085 39.8845C34.0085 36.4882 31.2757 33.7349 27.9046 33.7349C24.5336 33.7349 21.8008 36.4882 21.8008 39.8845C21.8008 43.2809 24.5336 46.0341 27.9046 46.0341Z" fill="#B0B27C"/>
<path d="M36.4564 62.8974C39.8275 62.8974 42.5602 60.1441 42.5602 56.7478C42.5602 53.3514 39.8275 50.5981 36.4564 50.5981C33.0853 50.5981 30.3525 53.3514 30.3525 56.7478C30.3525 60.1441 33.0853 62.8974 36.4564 62.8974Z" fill="#87CEE5"/>
<path d="M56.8584 46.0341H42.5106C39.1547 46.0341 36.4067 43.2655 36.4067 39.8845C36.4067 36.5035 39.1547 33.7349 42.5106 33.7349H56.8584C60.2143 33.7349 62.9622 36.5035 62.9622 39.8845C62.9706 43.2655 60.2226 46.0341 56.8584 46.0341Z" fill="#0F75A9"/>
<path d="M56.8581 62.8974H51.0623C47.7065 62.8974 44.9585 60.1288 44.9585 56.7478C44.9585 53.3667 47.7065 50.5981 51.0623 50.5981H56.8581C60.214 50.5981 62.9619 53.3667 62.9619 56.7478C62.9703 60.1288 60.2223 62.8974 56.8581 62.8974Z" fill="#B0B27C"/>
<path d="M72.1302 67C68.7744 67 66.0264 64.2314 66.0264 60.8504V39.8762C66.0264 36.4952 68.7744 33.7266 72.1302 33.7266C75.4861 33.7266 78.2341 36.4952 78.2341 39.8762V60.842C78.2424 64.2314 75.4944 67 72.1302 67Z" fill="#D14C1D"/>
<path d="M106.788 41.1345H110.294C113.342 41.2016 114.949 42.888 114.949 46.2354C114.949 49.5745 113.35 51.2609 110.294 51.3364H106.788V41.1345ZM107.754 50.5058H109.811C112.717 50.5226 113.983 49.2809 113.983 46.2354C113.983 43.19 112.717 41.9483 109.811 41.9651H107.754V50.5058Z" fill="black"/>
<path d="M116.748 46.2186C116.831 44.4903 118.038 43.7437 119.712 43.7437C121.003 43.7437 122.41 44.1464 122.41 46.1179V50.0359C122.41 50.3799 122.585 50.5812 122.935 50.5812C123.035 50.5812 123.143 50.5561 123.218 50.5225V51.2776C123.018 51.3195 122.876 51.3363 122.635 51.3363C121.727 51.3363 121.586 50.8245 121.586 50.0527H121.561C120.936 51.0091 120.295 51.5544 118.896 51.5544C117.547 51.5544 116.439 50.8833 116.439 49.3983C116.439 47.326 118.438 47.2589 120.37 47.024C121.111 46.9401 121.519 46.8394 121.519 46.0256C121.519 44.8091 120.653 44.5155 119.604 44.5155C118.496 44.5155 117.672 45.0273 117.647 46.227H116.748V46.2186ZM121.519 47.3093H121.494C121.377 47.519 120.986 47.5945 120.745 47.6365C119.229 47.9049 117.339 47.8965 117.339 49.3396C117.339 50.2373 118.13 50.7994 118.971 50.7994C120.328 50.7994 121.536 49.9268 121.527 48.4838V47.3093H121.519Z" fill="black"/>
<path d="M126.124 43.9619H127.615V44.717H126.124V49.6921C126.124 50.2794 126.207 50.6234 126.849 50.6653C127.107 50.6653 127.356 50.6485 127.615 50.6234V51.3952C127.348 51.3952 127.09 51.4204 126.824 51.4204C125.633 51.4204 125.225 51.0177 125.233 49.7592V44.717H123.959V43.9619H125.233V41.7471H126.124V43.9619Z" fill="black"/>
<path d="M129.322 46.2186C129.405 44.4903 130.613 43.7437 132.286 43.7437C133.577 43.7437 134.984 44.1464 134.984 46.1179V50.0359C134.984 50.3799 135.151 50.5812 135.509 50.5812C135.609 50.5812 135.725 50.5561 135.792 50.5225V51.2776C135.592 51.3195 135.451 51.3363 135.209 51.3363C134.301 51.3363 134.16 50.8245 134.16 50.0527H134.135C133.51 51.0091 132.869 51.5544 131.47 51.5544C130.121 51.5544 129.014 50.8833 129.014 49.3983C129.014 47.326 131.012 47.2589 132.944 47.024C133.685 46.9401 134.093 46.8394 134.093 46.0256C134.093 44.8091 133.227 44.5155 132.178 44.5155C131.07 44.5155 130.246 45.0273 130.221 46.227H129.322V46.2186ZM134.085 47.3093H134.06C133.943 47.519 133.552 47.5945 133.311 47.6365C131.795 47.9049 129.905 47.8965 129.905 49.3396C129.905 50.2373 130.696 50.7994 131.537 50.7994C132.894 50.7994 134.102 49.9268 134.093 48.4838V47.3093H134.085Z" fill="black"/>
<path d="M141.896 41.1345H145.401C148.449 41.2016 150.048 42.888 150.048 46.2354C150.048 49.5745 148.449 51.2609 145.401 51.3364H141.896V41.1345ZM142.861 50.5058H144.918C147.824 50.5226 149.09 49.2809 149.09 46.2354C149.09 43.19 147.824 41.9483 144.918 41.9651H142.861V50.5058Z" fill="black"/>
<path d="M151.947 43.962H152.771V45.6903H152.796C153.246 44.5073 154.245 43.8026 155.561 43.8613V44.759C153.945 44.6751 152.838 45.8748 152.838 47.4018V51.3281H151.947V43.962Z" fill="black"/>
<path d="M156.935 41.1345H157.826V42.5775H156.935V41.1345ZM156.935 43.9618H157.826V51.3364H156.935V43.9618Z" fill="black"/>
<path d="M159.233 43.9619H160.224L162.522 50.4304H162.547L164.812 43.9619H165.736L162.997 51.3364H162.048L159.233 43.9619Z" fill="black"/>
<path d="M167.652 47.8882C167.668 49.2053 168.343 50.791 170.067 50.791C171.374 50.791 172.082 50.0191 172.365 48.9033H173.256C172.873 50.5729 171.907 51.5461 170.067 51.5461C167.743 51.5461 166.761 49.7423 166.761 47.6449C166.761 45.6985 167.735 43.7437 170.067 43.7437C172.423 43.7437 173.356 45.8159 173.289 47.8882H167.652ZM172.39 47.1331C172.348 45.774 171.507 44.5071 170.067 44.5071C168.609 44.5071 167.802 45.7907 167.652 47.1331H172.39Z" fill="black"/>
<path d="M174.979 43.9619H175.871V45.2372H175.895C176.22 44.3479 177.203 43.7522 178.235 43.7522C180.292 43.7522 180.917 44.8345 180.917 46.5963V51.3365H180.026V46.7305C180.026 45.4553 179.618 44.4989 178.169 44.4989C176.753 44.4989 175.904 45.5811 175.871 47.0242V51.3281H174.979V43.9619Z" fill="black"/>
<path d="M188.195 47.9805C188.153 50.0779 189.652 50.724 191.501 50.724C192.567 50.724 194.182 50.1367 194.182 48.6517C194.182 47.4939 193.033 47.0409 192.1 46.806L189.844 46.2523C188.653 45.9502 187.562 45.3797 187.562 43.7941C187.562 42.7957 188.203 40.9248 191.051 40.9248C193.05 40.9248 194.807 42.0071 194.799 44.0961H193.833C193.774 42.5356 192.5 41.7554 191.068 41.7554C189.752 41.7554 188.528 42.2672 188.528 43.7857C188.528 44.7421 189.236 45.1448 190.06 45.3462L192.525 45.9586C193.957 46.3445 195.148 46.9738 195.148 48.6433C195.148 49.3397 194.865 51.5545 191.276 51.5545C188.878 51.5545 187.121 50.4723 187.237 47.9805H188.195Z" fill="black"/>
<path d="M202.934 51.3364H202.11V50.0025H202.085C201.619 50.9841 200.653 51.5462 199.562 51.5462C197.722 51.5462 196.997 50.4639 196.997 48.744V43.9619H197.888V48.7608C197.93 50.0864 198.429 50.7911 199.845 50.7911C201.377 50.7911 202.043 49.3313 202.043 47.8379V43.9619H202.934V51.3364Z" fill="black"/>
<path d="M205.132 43.962H205.957V45.6903H205.982C206.431 44.5073 207.431 43.8026 208.746 43.8613V44.759C207.131 44.6751 206.023 45.8748 206.023 47.4018V51.3281H205.132V43.962Z" fill="black"/>
<path d="M216.283 50.7324C216.266 52.9304 215.433 54.2728 213.035 54.2728C211.578 54.2728 210.129 53.6184 210.004 52.0411H210.895C211.095 53.1234 212.044 53.5093 213.035 53.5093C214.684 53.5093 215.391 52.5277 215.391 50.724V49.7256H215.367C214.958 50.6233 214.092 51.2357 213.043 51.2357C210.703 51.2357 209.737 49.5494 209.737 47.452C209.737 45.4217 210.928 43.7354 213.043 43.7354C214.109 43.7354 215.017 44.4065 215.367 45.2203H215.391V43.9619H216.283V50.7324ZM215.391 47.561C215.391 46.118 214.725 44.5072 213.035 44.5072C211.336 44.5072 210.62 46.0341 210.62 47.561C210.62 49.046 211.386 50.489 213.035 50.489C214.584 50.489 215.391 49.0628 215.391 47.561Z" fill="black"/>
<path d="M219.022 47.8882C219.039 49.2053 219.714 50.791 221.437 50.791C222.745 50.791 223.452 50.0191 223.736 48.9033H224.627C224.244 50.5729 223.278 51.5461 221.437 51.5461C219.114 51.5461 218.131 49.7423 218.131 47.6449C218.131 45.6985 219.106 43.7437 221.437 43.7437C223.794 43.7437 224.726 45.8159 224.66 47.8882H219.022ZM223.761 47.1331C223.719 45.774 222.878 44.5071 221.437 44.5071C219.98 44.5071 219.172 45.7907 219.022 47.1331H223.761Z" fill="black"/>
<path d="M226.358 43.962H227.183V45.6903H227.208C227.657 44.5073 228.657 43.8026 229.972 43.8613V44.759C228.357 44.6751 227.249 45.8748 227.249 47.4018V51.3281H226.358V43.962Z" fill="black"/>
<path d="M230.514 43.9619H231.463L233.878 50.2458L236.135 43.9619H237.026L233.853 52.4607C233.345 53.7023 233.045 54.0631 231.921 54.0631C231.563 54.0463 231.38 54.0463 231.238 53.9876V53.2325C231.455 53.2745 231.646 53.2996 231.846 53.2996C232.637 53.2996 232.82 52.8298 233.12 52.1419L233.437 51.3029L230.514 43.9619Z" fill="black"/>
<path d="M137.383 16.3767C134.785 16.3767 132.528 17.3331 130.671 19.2208C128.822 21.1085 127.881 23.4157 127.881 26.0668C127.881 28.7767 128.814 31.1174 130.646 33.0134C132.478 34.9095 134.718 35.8659 137.308 35.8659C138.765 35.8659 140.122 35.5555 141.355 34.9515C142.579 34.339 143.711 33.4162 144.694 32.208L144.977 31.8641V35.3877H147.034V16.8633H144.977V20.6554L144.694 20.2527C143.77 18.9607 142.687 17.9875 141.48 17.3415C140.264 16.7039 138.89 16.3767 137.383 16.3767ZM137.566 33.9447C136.234 33.9447 134.976 33.6007 133.819 32.9128C132.661 32.2248 131.729 31.2516 131.037 30.0267C130.355 28.8018 130.005 27.493 130.005 26.1423C130.005 24.7832 130.346 23.4744 131.029 22.2579C131.712 21.0414 132.636 20.0766 133.794 19.4054C134.943 18.7342 136.217 18.3902 137.583 18.3902C139.698 18.3902 141.505 19.1453 142.954 20.6303C144.403 22.1153 145.135 23.9945 145.135 26.2094C145.135 27.6608 144.811 28.9864 144.161 30.1442C143.512 31.302 142.579 32.2416 141.38 32.9212C140.189 33.6007 138.907 33.9447 137.566 33.9447Z" fill="black"/>
<path d="M116.714 16.3767C114.782 16.3767 113.009 16.813 111.443 17.6687C109.886 18.5245 108.645 19.741 107.746 21.2679C106.855 22.8032 106.405 24.4811 106.405 26.2681C106.405 28.9193 107.371 31.2097 109.278 33.0638C111.185 34.9179 113.625 35.8576 116.523 35.8576C118.413 35.8576 120.12 35.4884 121.594 34.7501C123.018 34.0454 124.176 33.047 125.042 31.7802L123.384 30.6811C121.636 32.8373 119.362 33.9363 116.623 33.9363C115.107 33.9363 113.717 33.5923 112.492 32.9128C111.268 32.2332 110.286 31.26 109.586 30.0351C108.887 28.8102 108.529 27.4763 108.529 26.0836C108.529 23.9358 109.303 22.0901 110.835 20.5883C112.359 19.0866 114.308 18.3315 116.614 18.3315C119.454 18.3315 121.736 19.4222 123.401 21.5867L125.05 20.5548C124.517 19.6906 123.867 18.9607 123.126 18.3986C122.344 17.803 121.369 17.308 120.245 16.9304C119.121 16.5697 117.93 16.3767 116.714 16.3767Z" fill="black"/>
<path d="M152.472 35.3792H154.612V29.1709C154.612 25.9073 154.762 23.7008 155.061 22.6185C155.453 21.2007 156.044 20.1352 156.81 19.4556C157.585 18.7677 158.401 18.4237 159.233 18.4237C159.575 18.4237 159.966 18.516 160.441 18.709L161.54 16.9219C160.866 16.5612 160.224 16.385 159.633 16.385C158.784 16.385 157.959 16.6451 157.177 17.1652C156.385 17.6854 155.619 18.4908 154.903 19.5563L154.612 19.9842V16.8632H152.472V35.3792Z" fill="black"/>
<path d="M165.012 35.3792H167.102V9.58936H165.012V35.3792Z" fill="black"/>
<path d="M171.399 33.3573C172.016 34.1207 172.782 34.7248 173.698 35.1611C174.655 35.6225 175.671 35.8574 176.721 35.8574C178.286 35.8574 179.61 35.3288 180.651 34.2969C181.692 33.2566 182.225 31.973 182.225 30.4796C182.225 29.4225 181.917 28.4577 181.309 27.6103C180.684 26.7714 179.477 25.8737 177.711 24.9592C176.213 24.179 175.247 23.5162 174.772 22.9289C174.289 22.35 174.047 21.7292 174.047 21.0832C174.047 20.3449 174.347 19.6989 174.93 19.1451C175.513 18.5998 176.229 18.323 177.045 18.323C178.269 18.323 179.543 18.9354 180.809 20.1435L182.133 18.7592C180.468 17.1736 178.794 16.3682 177.162 16.3682C175.73 16.3682 174.53 16.8296 173.598 17.7441C172.665 18.6585 172.19 19.8163 172.19 21.1922C172.19 22.2493 172.49 23.2058 173.073 24.0279C173.664 24.8585 174.805 25.7143 176.462 26.5784C178.07 27.4006 179.077 28.0718 179.543 28.6255C180.018 29.196 180.251 29.8504 180.251 30.5803C180.251 31.4612 179.893 32.2414 179.185 32.8958C178.486 33.5418 177.62 33.869 176.621 33.869C175.247 33.869 173.931 33.1895 172.715 31.8555L171.399 33.3573Z" fill="black"/>
<path d="M212.261 35.3792H214.401V25.2529C214.401 22.929 214.159 21.1671 213.693 20.0177C213.227 18.8767 212.502 17.9707 211.553 17.3414C210.595 16.7038 209.471 16.385 208.222 16.385C206.873 16.385 205.599 16.7625 204.433 17.5092C203.259 18.2559 202.268 19.3717 201.485 20.8148L201.31 21.1336L201.194 20.7896C200.827 19.7073 200.386 18.8684 199.886 18.2895C199.387 17.719 198.737 17.2491 197.946 16.9052C197.155 16.5612 196.306 16.385 195.431 16.385C194.124 16.385 192.858 16.7542 191.676 17.4673C190.818 18.0042 189.96 18.8767 189.144 20.0513L188.853 20.4624V16.8632H186.763V35.3792H188.853V27.5601C188.853 25.1942 189.094 23.4072 189.561 22.2578C190.035 21.0916 190.776 20.152 191.767 19.464C192.758 18.7761 193.841 18.4237 194.973 18.4237C195.964 18.4237 196.83 18.6838 197.555 19.1872C198.279 19.6989 198.796 20.3785 199.079 21.2175C199.37 22.0564 199.512 23.5834 199.512 25.8989V35.3792H201.602V28.1641C201.602 25.4543 201.827 23.4911 202.276 22.3249C202.734 21.142 203.459 20.1939 204.45 19.4808C205.441 18.7761 206.54 18.4153 207.739 18.4153C208.722 18.4153 209.588 18.6586 210.304 19.1368C211.02 19.615 211.536 20.2527 211.828 21.0413C212.127 21.8215 212.269 23.2058 212.269 25.2613V35.3792H212.261Z" fill="black"/>
<path d="M228.316 16.3767C225.284 16.3767 222.836 17.5597 221.029 19.8836C219.605 21.7125 218.881 23.8351 218.881 26.1759C218.881 28.6676 219.739 30.9244 221.421 32.9044C223.103 34.876 225.468 35.8659 228.457 35.8659C229.806 35.8659 231.03 35.6562 232.096 35.2451C233.162 34.834 234.136 34.2216 234.986 33.4329C235.81 32.6695 236.543 31.6627 237.184 30.4294L235.427 29.4982C234.719 30.6727 234.045 31.5453 233.429 32.0822C232.787 32.6443 231.996 33.0973 231.08 33.4413C230.164 33.7769 229.215 33.9531 228.249 33.9531C226.242 33.9531 224.527 33.2316 223.161 31.8053C221.795 30.3791 221.079 28.5334 221.038 26.3185V26.1591H237.859C237.809 23.7009 237.126 21.6203 235.835 19.9759C233.961 17.5848 231.438 16.3767 228.316 16.3767ZM235.569 24.3721H221.221L221.279 24.1707C221.779 22.4173 222.528 21.0833 223.511 20.2024C224.851 18.9943 226.475 18.3818 228.349 18.3818C229.481 18.3818 230.572 18.6251 231.597 19.1034C232.621 19.5816 233.462 20.2276 234.086 21.0162C234.711 21.8048 235.194 22.8703 235.519 24.1791L235.569 24.3721Z" fill="black"/>
<path d="M251.349 16.3766C248.751 16.3766 246.494 17.333 244.637 19.2207C242.789 21.1084 241.848 23.4156 241.848 26.0667C241.848 28.7766 242.78 31.1173 244.612 33.0133C246.444 34.9094 248.684 35.8658 251.274 35.8658C252.731 35.8658 254.097 35.5554 255.321 34.9514C256.545 34.3389 257.669 33.4161 258.66 32.2079L258.943 31.864V35.3876H261V9.58936H258.943V20.6553L258.66 20.2526C257.736 18.9606 256.653 17.979 255.446 17.3414C254.222 16.7038 252.848 16.3766 251.349 16.3766ZM251.524 33.9446C250.192 33.9446 248.934 33.6006 247.777 32.9127C246.619 32.2247 245.687 31.2515 244.995 30.0266C244.313 28.8017 243.963 27.4929 243.963 26.1422C243.963 24.7831 244.304 23.4743 244.987 22.2578C245.662 21.0413 246.594 20.0765 247.752 19.4053C248.901 18.7341 250.175 18.3901 251.541 18.3901C253.656 18.3901 255.463 19.1452 256.912 20.6302C258.361 22.1152 259.093 23.9944 259.093 26.2093C259.093 27.6607 258.769 28.9863 258.119 30.1441C257.47 31.3019 256.537 32.2415 255.338 32.9211C254.147 33.6006 252.865 33.9446 251.524 33.9446Z" fill="black"/>
<path d="M239.333 41.8477H238.583V43.9451H238.184V41.8477H237.434V41.5205H239.333V41.8477ZM242.464 43.9451H242.064V41.9232H242.056L241.265 43.9451H241.015L240.224 41.9232H240.215V43.9451H239.824V41.5205H240.44L241.156 43.3578L241.864 41.5205H242.472V43.9451H242.464Z" fill="black"/>
</svg>
