<?xml version="1.0" standalone="no"?>
<!DOCTYPE svg PUBLIC "-//W3C//DTD SVG 1.0//EN" "http://www.w3.org/TR/2001/REC-SVG-20010904/DTD/svg10.dtd">
<svg xmlns="http://www.w3.org/2000/svg" xmlns:xlink="http://www.w3.org/1999/xlink" id="body_1" width="250" height="80">

<g transform="matrix(0.4166667 0 0 0.4166667 0 0)">
    <path transform="matrix(1.333333 0 0 1.333333 0 0)"  d="M235.59 101.33L206.82 101.33C 201.511 101.33 196.6053 104.1623 193.9509 108.76C 191.2964 113.3577 191.2964 119.0223 193.9509 123.62C 196.6053 128.2177 201.511 131.05 206.82 131.05L206.82 131.05L235.59 131.05C 243.797 131.05 250.45 124.397 250.45 116.19C 250.45 107.983 243.797 101.33 235.59 101.33z" stroke="none" fill="#B0B27C" fill-rule="nonzero" />
    <path transform="matrix(1.333333 0 0 1.333333 0 0)"  d="M403 101.34L276.31 101.34C 268.1114 101.344 261.4673 107.9914 261.4673 116.19C 261.4673 124.3886 268.1114 131.036 276.31 131.04L276.31 131.04L403 131.04C 408.3071 131.0426 413.2122 128.2128 415.8665 123.6171C 418.5208 119.0214 418.5208 113.3586 415.8665 108.7629C 413.2122 104.1672 408.3071 101.3374 403 101.34z" stroke="none" fill="#D14C1D" fill-rule="nonzero" />
    <path transform="matrix(1.333333 0 0 1.333333 0 0)"  d="M64 14.72L81.2 14.72L81.2 83.26L64 83.26L64 76C 61.07816 78.89166 57.65611 81.22949 53.9 82.9C 50.44009 84.30991 46.73607 85.02353 43 85C 34.14 85 26.47334 81.56667 20 74.7C 13.52667 67.83333 10.29333 59.30666 10.3 49.12C 10.3 38.53333 13.42333 29.86667 19.67 23.12C 25.42489 16.587 33.74444 12.89105 42.45 13C 46.41539 12.96231 50.34638 13.7383 54 15.28C 57.7546 16.9448 61.15063 19.32202 64 22.28L64 22.28L64 14.72zM46 28.83C 40.9751 28.70311 36.14187 30.76042 32.75 34.47C 29.23 38.23 27.47 43.05 27.47 48.93C 27.47 54.81 29.24667 59.68 32.8 63.54C 36.16291 67.27217 40.97697 69.36555 46 69.28C 51.08135 69.41351 55.97561 67.35967 59.44 63.64C 63.00667 59.88 64.79001 54.95667 64.79 48.87C 64.79001 42.87 63.01334 38.03667 59.46 34.37C 55.95336 30.71074 51.06652 28.69937 46 28.83z" stroke="none" fill="#8B8D90" fill-rule="nonzero" />
    <path transform="matrix(1.333333 0 0 1.333333 0 0)"  d="M112.86 14.72L112.86 22.28C 115.7446 19.32733 119.1657 16.9516 122.94 15.28C 126.6068 13.73538 130.5514 12.95938 134.53 13C 143.2414 12.88394 151.5705 16.57195 157.34 23.1C 163.6 29.86 166.73 38.52667 166.73 49.1C 166.73 59.67333 155.82 71.64 134 85C 130.2304 85.02487 126.4928 84.30793 123 82.89C 119.2275 81.23201 115.7907 78.89677 112.86 76L112.86 76L112.86 108.32L95.79 108.32L95.79 14.72L112.86 14.72zM130.94 28.83C 125.8666 28.69368 120.9714 30.70551 117.46 34.37C 113.8933 38.07 112.11 42.90334 112.11 48.87C 115.589 52.59268 120.4965 54.64598 125.59 54.51C 130.6342 54.60007 135.4715 52.50764 138.86 48.77C 142.4534 44.95 144.2467 40.08 144.24 34.16C 144.2334 28.24 144.2534 28.34333 144.3 34.47C 140.8687 30.75087 135.9984 28.69484 130.94 28.83z" stroke="none" fill="#8B8D90" fill-rule="nonzero" />
    <path transform="matrix(1.333333 0 0 1.333333 0 0)"  d="M174.1 14.72L188.84 14.72L188.84 23.35C 190.2018 20.22777 192.4035 17.54484 195.2 15.6C 197.7712 13.87523 200.8041 12.96885 203.9 13C 206.3374 13.05104 208.7313 13.65633 210.9 14.77L210.9 14.77L205.54 29.57C 204.0077 28.69792 202.2988 28.18184 200.54 28.06C 197.8733 28.06 195.6367 29.69667 193.83 32.97C 192.0233 36.24334 191.1167 42.65334 191.11 52.2L191.11 52.2L191.17 55.54L191.17 83.26L174.1 83.26L174.1 14.72z" stroke="none" fill="#8B8D90" fill-rule="nonzero" />
    <path transform="matrix(1.333333 0 0 1.333333 0 0)"  d="M282.65 54L227.39 54C 228.0033 58.53469 230.2853 62.67783 233.79 65.62C 237.25 68.50001 241.67 69.94 247.05 69.94C 253.2578 70.02815 259.2363 67.59635 263.62 63.2L263.62 63.2L278.11 70C 274.8221 74.84094 270.3457 78.75607 265.11 81.37C 259.4882 83.93098 253.3552 85.17261 247.18 85C 236.3933 85 227.6367 81.61667 220.91 74.85C 214.1833 68.08333 210.8 59.59 210.76 49.37C 210.76 38.91 214.13 30.24334 220.87 23.37C 227.61 16.49667 236.0633 13.04 246.23 13C 257.03 13 265.81 16.45667 272.57 23.37C 279.33 30.28333 282.71 39.40667 282.71 50.74L282.71 50.74L282.65 54zM265.45 40.45C 264.3386 36.66776 261.9675 33.3792 258.73 31.13C 255.3311 28.71712 251.2475 27.45875 247.08 27.54C 242.5477 27.44773 238.1116 28.85377 234.46 31.54C 232.1867 33.22 230.0833 36.18 228.15 40.42z" stroke="none" fill="#8B8D90" fill-rule="nonzero" />
    <path transform="matrix(1.333333 0 0 1.333333 0 0)"  d="M281.23 14.72L298.76 14.72L316.07 55.17L333.35 14.72L350.79 14.72L321.62 83.26L310.47 83.26L281.23 14.72z" stroke="none" fill="#8B8D90" fill-rule="nonzero" />
    <path transform="matrix(1.333333 0 0 1.333333 0 0)"  d="M387.61 13C 394.0109 12.98344 400.3027 14.65644 405.85 17.85C 417.0802 24.16051 424.0223 36.04826 424 48.93C 424.0256 55.29649 422.3624 61.55591 419.18 67.07C 416.0677 72.58587 411.5111 77.14935 406 80.27C 400.419 83.43887 394.0975 85.07101 387.68 85C 378.1985 85.14396 369.0829 81.34488 362.51 74.51C 355.675 67.80981 351.9023 58.58965 352.08 49.02C 351.8678 38.79633 356.1786 29.00018 363.86 22.25C 370.3008 16.24028 378.8011 12.92961 387.61 13zM387.9 29.19C 382.8578 29.06055 378.0003 31.09085 374.55 34.77C 370.99 38.45667 369.2133 43.2 369.22 49C 369.22 55 370.9767 59.83 374.49 63.49C 377.9444 67.14932 382.8 69.15491 387.83 69C 392.9075 69.12992 397.7997 67.08939 401.28 63.39C 404.8533 59.65 406.64 54.84 406.64 48.96C 406.64 43.08 404.8833 38.30333 401.37 34.63C 397.8667 30.96522 392.9669 28.9682 387.9 29.14z" stroke="none" fill="#8B8D90" fill-rule="nonzero" />
    <path transform="matrix(1.333333 0 0 1.333333 0 0)"  d="M430.14 15.67L427.84 15.67L427.84 21.84L426.63 21.84L426.63 15.67L424.33 15.67L424.33 14.72L430.14 14.72L430.14 15.67zM439.7 21.84L438.49 21.84L438.49 15.9L436.08 21.84L435.32 21.84L432.91 15.9L432.91 21.84L431.69 21.84L431.69 14.72L433.57 14.72L435.76 20.13L437.91 14.72L439.76 14.72z" stroke="none" fill="#8B8D90" fill-rule="nonzero" />
    <path transform="matrix(1.330874 -0.08093349 0.08093348 1.330874 -8.999998 13.70666)"  d="M180.6 116.19C 180.6 112.0865 179.1492 108.584 176.2476 105.6824C 173.346 102.7808 169.8435 101.33 165.74 101.33C 161.6365 101.33 158.134 102.7808 155.2324 105.6824C 152.3308 108.584 150.88 112.0865 150.88 116.19C 150.88 120.2935 152.3308 123.796 155.2324 126.6976C 158.134 129.5992 161.6365 131.05 165.74 131.05C 169.8435 131.05 173.346 129.5992 176.2476 126.6976C 179.1492 123.796 180.6 120.2935 180.6 116.19" stroke="none" fill="#0F75A9" fill-rule="nonzero" />
</g>
</svg>