<svg id="Layer_1" data-name="Layer 1" xmlns="http://www.w3.org/2000/svg" width="110" viewBox="0 0 450 144">
  <defs>
    <style>
      .cls-1 {
        fill: #fff;
      }
    </style>
  </defs>
  <g>
    <path class="cls-1" d="M235.59,101.33H206.82a14.86,14.86,0,1,0,0,29.72h28.77a14.86,14.86,0,0,0,0-29.72Z"/>
    <path class="cls-1" d="M403,101.34H276.31a14.85,14.85,0,0,0,0,29.7H403a14.85,14.85,0,1,0,0-29.7Z"/>
    <g>
      <path class="cls-1" d="M64,14.72h17.2V83.26H64V76a34,34,0,0,1-10.1,6.9A28.41,28.41,0,0,1,43,85q-13.29,0-23-10.3T10.3,49.12q0-15.88,9.37-26A29.86,29.86,0,0,1,42.45,13,29,29,0,0,1,54,15.28a31.76,31.76,0,0,1,10,7ZM46,28.83a17.36,17.36,0,0,0-13.25,5.64q-5.28,5.64-5.28,14.46T32.8,63.54A17.37,17.37,0,0,0,46,69.28a17.73,17.73,0,0,0,13.44-5.64Q64.79,58,64.79,48.87q0-9-5.33-14.5A18,18,0,0,0,46,28.83Z"/>
      <path class="cls-1" d="M112.86,14.72v7.56a32.48,32.48,0,0,1,10.08-7A29.09,29.09,0,0,1,134.53,13,29.91,29.91,0,0,1,157.34,23.1q9.39,10.14,9.39,26,0,15.3-9.7,25.61T134,85a28.74,28.74,0,0,1-11-2.11A33.73,33.73,0,0,1,112.86,76v32.32H95.79V14.72Zm18.08,14.11a18,18,0,0,0-13.48,5.54q-5.35,5.55-5.35,14.5,0,9.14,5.35,14.77a17.8,17.8,0,0,0,13.48,5.64,17.49,17.49,0,0,0,13.27-5.74q5.39-5.73,5.38-14.61T144.3,34.47A17.54,17.54,0,0,0,130.94,28.83Z"/>
      <path class="cls-1" d="M174.1,14.72h14.74v8.63a18.4,18.4,0,0,1,6.36-7.75A15.34,15.34,0,0,1,203.9,13a16.06,16.06,0,0,1,7,1.77l-5.36,14.8a11.75,11.75,0,0,0-5-1.51q-4,0-6.71,4.91T191.11,52.2l.06,3.34V83.26H174.1Z"/>
      <path class="cls-1" d="M282.65,54H227.39a18.39,18.39,0,0,0,6.4,11.62q5.19,4.32,13.26,4.32a22.94,22.94,0,0,0,16.57-6.74L278.11,70a34.16,34.16,0,0,1-13,11.37A40.52,40.52,0,0,1,247.18,85Q231,85,220.91,74.85T210.76,49.37q0-15.69,10.11-26T246.23,13q16.2,0,26.34,10.37t10.14,27.37Zm-17.2-13.55a17.28,17.28,0,0,0-6.72-9.32,19.47,19.47,0,0,0-11.65-3.59,20.59,20.59,0,0,0-12.62,4q-3.41,2.52-6.31,8.88Z"/>
      <path class="cls-1" d="M281.23,14.72h17.53l17.31,40.45,17.28-40.45h17.44L321.62,83.26H310.47Z"/>
      <path class="cls-1" d="M387.61,13a36.37,36.37,0,0,1,18.24,4.85A35.58,35.58,0,0,1,424,48.93a36,36,0,0,1-4.82,18.14A34.85,34.85,0,0,1,406,80.27,36.29,36.29,0,0,1,387.68,85a34.2,34.2,0,0,1-25.17-10.49,34.79,34.79,0,0,1-10.43-25.49,34.68,34.68,0,0,1,11.78-26.77A34.41,34.41,0,0,1,387.61,13Zm.29,16.19a17.68,17.68,0,0,0-13.35,5.58Q369.21,40.3,369.22,49q0,9,5.27,14.49A17.6,17.6,0,0,0,387.83,69a17.84,17.84,0,0,0,13.45-5.61q5.36-5.61,5.36-14.43t-5.27-14.33A17.8,17.8,0,0,0,387.9,29.14Z"/>
    </g>
    <path class="cls-1" d="M430.14,15.67h-2.3v6.17h-1.21V15.67h-2.3v-.95h5.81Zm9.56,6.17h-1.21V15.9h0l-2.41,5.94h-.76l-2.41-5.94h0v5.94h-1.22V14.72h1.88l2.19,5.41,2.15-5.41h1.85Z"/>
    <circle class="cls-1" cx="165.74" cy="116.19" r="14.86" transform="translate(-6.75 10.28) rotate(-3.48)"/>
  </g>
</svg>
